0
SECTION
2
HEADER
9
$INSUNITS
70
4
9
$ACADVER
1
AC1014
9
$HANDSEED
5
FFFF
0
ENDSEC
0
SECTION
2
TABLES
0
TABLE
2
VPORT
5
8
100
AcDbSymbolTable
0
ENDTAB
0
TABLE
2
LTYPE
5
5
100
AcDbSymbolTable
0
LTYPE
5
14
100
AcDbSymbolTableRecord
100
AcDbLinetypeTableRecord
2
BYBLOCK
70
0
0
LTYPE
5
15
100
AcDbSymbolTableRecord
100
AcDbLinetypeTableRecord
2
BYLAYER
70
0
0
LTYPE
5
16
100
AcDbSymbolTableRecord
100
AcDbLinetypeTableRecord
2
DASHED
70
0
3
Dashed __ __ __ __ __ __ __ __ __ __ __ __ __ _
72
65
73
2
40
0.75
49
0.5
74
0
49
-0.25
74
0
0
ENDTAB
0
TABLE
2
LAYER
5
2
100
AcDbSymbolTable
70
3
0
LAYER
5
50
100
AcDbSymbolTableRecord
100
AcDbLayerTableRecord
2
1
70
0
62
7
6
DASHED
0
LAYER
5
51
100
AcDbSymbolTableRecord
100
AcDbLayerTableRecord
2
0
70
0
62
7
6
CONTINUOUS
0
ENDTAB
0
TABLE
2
STYLE
5
3
100
AcDbSymbolTable
70
1
0
STYLE
5
11
100
AcDbSymbolTableRecord
100
AcDbTextStyleTableRecord
2
STANDARD
70
0
0
ENDTAB
0
TABLE
2
VIEW
5
6
100
AcDbSymbolTable
70
0
0
ENDTAB
0
TABLE
2
UCS
5
7
100
AcDbSymbolTable
70
0
0
ENDTAB
0
TABLE
2
APPID
5
9
100
AcDbSymbolTable
70
2
0
APPID
5
12
100
AcDbSymbolTableRecord
100
AcDbRegAppTableRecord
2
ACAD
70
0
0
ENDTAB
0
TABLE
2
DIMSTYLE
5
A
100
AcDbSymbolTable
70
1
0
ENDTAB
0
TABLE
2
BLOCK_RECORD
5
1
100
AcDbSymbolTable
70
1
0
BLOCK_RECORD
5
1F
100
AcDbSymbolTableRecord
100
AcDbBlockTableRecord
2
*MODEL_SPACE
0
BLOCK_RECORD
5
1B
100
AcDbSymbolTableRecord
100
AcDbBlockTableRecord
2
*PAPER_SPACE
0
ENDTAB
0
ENDSEC
0
SECTION
2
BLOCKS
0
BLOCK
5
20
100
AcDbEntity
100
AcDbBlockBegin
2
*MODEL_SPACE
0
ENDBLK
5
21
100
AcDbEntity
100
AcDbBlockEnd
0
BLOCK
5
1C
100
AcDbEntity
100
AcDbBlockBegin
2
*PAPER_SPACE
0
ENDBLK
5
1D
100
AcDbEntity
100
AcDbBlockEnd
0
ENDSEC
0
SECTION
2
ENTITIES
0
LWPOLYLINE
5
100
100
AcDbEntity
8
0
100
AcDbPolyline
90
18
70
1
43
0.0
10
-4.3588989435406837
20
-29.176188921790313
10
-4.3588989435406837
20
-27.499999999999996
10
4.3588989435406678
20
-27.499999999999996
10
4.3588989435406695
20
-29.176188921790327
42
0.16063460409413985
10
20.859650045003146
20
-20.859650045003146
42
0.16063460409413977
10
29.176188921790317
20
-4.358898943540666
10
27.499999999999996
20
-4.3588989435406704
10
27.499999999999996
20
4.3588989435406802
10
29.17618892179032
20
4.3588989435406713
42
0.32977864351216873
10
4.3588989435406766
20
29.17618892179032
10
4.3588989435406749
20
26.499999999999993
10
-4.3588989435406669
20
26.499999999999993
10
-4.3588989435406678
20
29.176188921790327
42
0.16063460409413888
10
-20.859650045003146
20
20.85965004500315
42
0.16063460409413902
10
-29.176188921790317
20
4.358898943540666
10
-27.499999999999996
20
4.358898943540682
10
-27.499999999999996
20
-4.3588989435406695
10
-29.17618892179032
20
-4.3588989435406686
42
0.32977864351216929
0
CIRCLE
5
101
100
AcDbEntity
8
0
100
AcDbCircle
10
17.324116139070412
20
-17.324116139070412
30
0
40
5
210
0
220
0
230
1
0
CIRCLE
5
102
100
AcDbEntity
8
0
100
AcDbCircle
10
-17.324116139070416
20
17.324116139070416
30
0
40
5
210
0
220
0
230
1
0
CIRCLE
5
103
100
AcDbEntity
8
1
100
AcDbCircle
10
17.324116139070412
20
-17.324116139070412
30
0
40
6
210
0
220
0
230
1
0
LINE
5
104
100
AcDbEntity
8
1
100
AcDbLine
10
17.324116139070412
20
-17.324116139070412
30
0
11
12.720112538532607
21
-21.928119739608217
31
0
0
LINE
5
105
100
AcDbEntity
8
1
100
AcDbLine
10
17.324116139070412
20
-17.324116139070412
30
0
11
23.835160472165541
21
-17.324116139070412
31
0
0
LINE
5
106
100
AcDbEntity
8
1
100
AcDbLine
10
12.720112538532607
20
-21.928119739608217
30
0
11
21.912500693957728
21
-12.7357315841831
31
0
0
CIRCLE
5
107
100
AcDbEntity
8
1
100
AcDbCircle
10
-17.324116139070416
20
17.324116139070416
30
0
40
6
210
0
220
0
230
1
0
LINE
5
108
100
AcDbEntity
8
1
100
AcDbLine
10
-17.324116139070416
20
17.324116139070416
30
0
11
-21.920310216782973
21
12.727922061357857
31
0
0
LINE
5
109
100
AcDbEntity
8
1
100
AcDbLine
10
-17.324116139070416
20
17.324116139070416
30
0
11
-10.824116139070416
21
17.324116139070416
31
0
0
LINE
5
110
100
AcDbEntity
8
1
100
AcDbLine
10
-17.324116139070416
20
17.324116139070416
30
0
11
-12.727922061357857
21
21.920310216782973
31
0
0
LINE
5
111
100
AcDbEntity
8
1
100
AcDbLine
10
-17.324116139070416
20
17.324116139070416
30
0
11
-10.824116139070416
21
17.324116139070416
31
0
0
LWPOLYLINE
5
112
100
AcDbEntity
8
0
100
AcDbPolyline
90
8
70
1
43
0.0
10
21.912500693957728
20
-12.7357315841831
10
21.912500693957728
20
12.2642684158169
10
12.272077938642143
20
21.920310216782973
10
-12.727922061357857
20
21.920310216782973
42
-0.99999999999999989
10
-21.920310216782973
20
12.727922061357857
10
-21.920310216782973
20
-12.272077938642143
10
-12.273871058805813
20
-22.476557462579791
10
12.720112538531708
20
-21.928119739607315
42
-1.0001308820865051
0
ENDSEC
0
SECTION
2
OBJECTS
0
DICTIONARY
5
C
100
AcDbDictionary
3
ACAD_GROUP
350
D
3
ACAD_MLINESTYLE
350
17
0
DICTIONARY
5
D
100
AcDbDictionary
0
DICTIONARY
5
1A
330
C
100
AcDbDictionary
0
DICTIONARY
5
17
100
AcDbDictionary
0
ENDSEC
0
EOF
