<?xml version="1.0" encoding="utf-8"?>
<!-- Generator: Adobe Illustrator 15.0.0, SVG Export Plug-In . SVG Version: 6.00 Build 0)  -->
<!DOCTYPE svg PUBLIC "-//W3C//DTD SVG 1.1//EN" "http://www.w3.org/Graphics/SVG/1.1/DTD/svg11.dtd">
<svg version="1.1" id="Layer_1" xmlns="http://www.w3.org/2000/svg" xmlns:xlink="http://www.w3.org/1999/xlink" x="0px" y="0px"
	 width="261.895px" height="275.789px" viewBox="0 0 261.895 275.789" enable-background="new 0 0 261.895 275.789"
	 xml:space="preserve">
<g>
	<g>
		<defs>
			<path id="SVGID_1_" d="M57.655,135.555c0-43.764,35.478-79.243,79.244-79.243c43.771,0,79.251,35.479,79.251,79.243
				c0,43.762-35.479,79.242-79.251,79.242C93.133,214.797,57.655,179.316,57.655,135.555z"/>
		</defs>
		<clipPath id="SVGID_2_">
			<use xlink:href="#SVGID_1_"  overflow="visible"/>
		</clipPath>
		<g clip-path="url(#SVGID_2_)">
			
				<circle opacity="0.42" fill-rule="evenodd" clip-rule="evenodd" fill="none" stroke="#FFFFFF" stroke-width="1.2038" stroke-linecap="round" cx="161.669" cy="67.39" r="4.341"/>
			
				<line fill="none" stroke="#97CDEF" stroke-width="1.4149" stroke-linecap="round" x1="157.577" y1="63.764" x2="150.752" y2="56.257"/>
			
				<line fill="none" stroke="#97CDEF" stroke-width="1.4149" stroke-linecap="round" x1="166.808" y1="66.892" x2="175.774" y2="65.641"/>
		</g>
	</g>
	<linearGradient id="SVGID_3_" gradientUnits="userSpaceOnUse" x1="121.7834" y1="152.0293" x2="211.9866" y2="152.0293">
		<stop  offset="0" style="stop-color:#EFE805"/>
		<stop  offset="0.17" style="stop-color:#C0DA17"/>
		<stop  offset="0.3687" style="stop-color:#8FCC29"/>
		<stop  offset="0.5574" style="stop-color:#69C137"/>
		<stop  offset="0.7308" style="stop-color:#4DB942"/>
		<stop  offset="0.8835" style="stop-color:#3DB548"/>
		<stop  offset="0.9992" style="stop-color:#37B34A"/>
	</linearGradient>
	<path opacity="0.88" fill="url(#SVGID_3_)" d="M121.783,144.725c0,0,32.881-11.882,88.933-2.178
		c4.357,5.348-3.894,22.777-3.894,22.777L121.783,144.725z"/>
	<path fill="#6ACEF5" stroke="#FFFFFF" stroke-width="3.1385" stroke-miterlimit="10" d="M170.823,152.633
		c5.795-0.859,24.525-2.52,36.9-1.846c4.364,0.24,11.112,0.99,11.112,0.99l-3.167,17.112l-55.646-13.524
		C160.023,155.365,165.028,153.494,170.823,152.633z"/>
	
		<radialGradient id="SVGID_4_" cx="61.5999" cy="154.1904" r="141.6004" gradientTransform="matrix(1 0 0 1.1999 0 -31.4699)" gradientUnits="userSpaceOnUse">
		<stop  offset="0" style="stop-color:#D6DE23"/>
		<stop  offset="0.1045" style="stop-color:#B1D42C"/>
		<stop  offset="0.2299" style="stop-color:#8CCA35"/>
		<stop  offset="0.3613" style="stop-color:#6DC23D"/>
		<stop  offset="0.4983" style="stop-color:#55BB43"/>
		<stop  offset="0.6434" style="stop-color:#44B747"/>
		<stop  offset="0.8019" style="stop-color:#3AB449"/>
		<stop  offset="0.9992" style="stop-color:#37B34A"/>
	</radialGradient>
	<path fill="url(#SVGID_4_)" stroke="#FFFFFF" stroke-width="3.3686" stroke-miterlimit="10" d="M30.542,158.941
		c0,0,78.831-35.116,184.73,10.74l-11.225,28.234L40.049,208.373L30.542,158.941z"/>
	<g>
		<g>
			<path fill="#005D3E" d="M183.214,112.62c-7.113,11.551-13.134,23.862-18.665,36.229c-10.837,24.23-19.488,50.156-21.44,76.765
				c-0.076,1.039,2.401,3.016,2.404,2.977c1.95-26.582,10.628-52.299,21.355-76.529c5.48-12.38,11.557-24.687,18.664-36.229
				C186.037,115.012,183.27,112.529,183.214,112.62L183.214,112.62z"/>
		</g>
	</g>
	<g>
		<g>
			<path fill="#005D3E" d="M158.792,66.842c-4.864,12.034-7.634,25.104-10.203,37.768c-7.769,38.296-10.368,77.632-10.562,116.642
				c-0.012,2.381,3.903,1.872,3.914-0.385c0.191-38.421,2.811-77.015,10.275-114.756c1.885-9.525,4.117-18.996,6.886-28.304
				c0.736-2.475,1.521-4.936,2.373-7.373c0.205-0.586,0.97-2.612,0.79-2.168C163.208,65.931,159.652,64.716,158.792,66.842
				L158.792,66.842z"/>
		</g>
	</g>
	<path fill="none" stroke="#0090D5" stroke-width="9.0101" stroke-miterlimit="10" d="M29.36,145.6
		c0-52.668,42.693-95.361,95.354-95.361c52.666,0,95.356,42.693,95.356,95.361c0,52.664-42.69,95.357-95.356,95.357
		C72.052,240.957,29.36,198.264,29.36,145.6z"/>
	<g>
		<g>
			<g>
				<polygon fill="#FFF100" points="61.649,132.244 62.599,133.385 62.864,134.564 61.858,135.568 62.426,136.846 61.842,137.883 
					61.8,139.084 61.3,140.135 60.689,141.122 59.694,141.876 59.676,143.206 58.249,143.587 58.219,145.004 56.903,145.349 
					56.363,146.395 55.63,147.28 54.607,147.817 53.311,147.901 52.539,148.741 51.438,149.015 50.376,149.309 49.549,150.193 
					48.701,151.234 47.448,150.943 46.389,151.37 45.179,150.733 44.16,151.889 43.016,150.813 41.918,151.086 40.841,150.833 
					39.682,151.141 38.395,151.727 37.508,150.633 36.416,150.369 35.147,150.478 34.028,150.134 33.471,148.771 32.217,148.659 
					31.878,147.202 30.484,147.175 29.961,146.079 28.693,145.754 28.802,144.168 27.192,144.022 26.861,142.867 26.007,142.062 
					26.159,140.708 25.829,139.656 24.42,139.012 24.521,137.782 24.597,136.611 24.784,135.461 23.759,134.496 23.107,133.404 
					23.924,132.244 23.742,131.121 24.18,130.041 24.55,128.986 24.918,127.952 23.926,126.526 25.156,125.741 25.446,124.662 
					26.196,123.794 26.539,122.728 26.318,121.258 27.695,120.834 28.142,119.761 28.639,118.677 29.794,118.226 30.549,117.384 
					31.851,117.242 32.113,115.665 33.321,115.448 34.124,114.536 35.209,114.144 36.545,114.463 37.638,114.28 38.588,113.565 
					39.636,113.082 40.775,113.084 41.875,112.66 43.016,112.329 44.165,112.52 45.265,113.007 46.453,112.759 47.615,112.843 
					48.361,114.399 49.498,114.442 50.804,114.197 51.745,114.871 52.56,115.717 53.429,116.415 54.293,117.101 55.245,117.673 
					56.104,118.375 56.995,119.059 57.533,120.066 58.625,120.626 59.086,121.677 59.081,122.972 60.515,123.457 61.396,124.316 
					61.776,125.417 61.224,126.792 61.754,127.803 61.977,128.9 62.762,129.936 61.743,131.152 				"/>
				<polygon fill="none" stroke="#F05A28" stroke-width="4.1315" stroke-miterlimit="10" points="61.649,132.244 62.599,133.385 
					62.864,134.564 61.858,135.568 62.426,136.846 61.842,137.883 61.8,139.084 61.3,140.135 60.689,141.122 59.694,141.876 
					59.676,143.206 58.249,143.587 58.219,145.004 56.903,145.349 56.363,146.395 55.63,147.28 54.607,147.817 53.311,147.901 
					52.539,148.741 51.438,149.015 50.376,149.309 49.549,150.193 48.701,151.234 47.448,150.943 46.389,151.37 45.179,150.733 
					44.16,151.889 43.016,150.813 41.918,151.086 40.841,150.833 39.682,151.141 38.395,151.727 37.508,150.633 36.416,150.369 
					35.147,150.478 34.028,150.134 33.471,148.771 32.217,148.659 31.878,147.202 30.484,147.175 29.961,146.079 28.693,145.754 
					28.802,144.168 27.192,144.022 26.861,142.867 26.007,142.062 26.159,140.708 25.829,139.656 24.42,139.012 24.521,137.782 
					24.597,136.611 24.784,135.461 23.759,134.496 23.107,133.404 23.924,132.244 23.742,131.121 24.18,130.041 24.55,128.986 
					24.918,127.952 23.926,126.526 25.156,125.741 25.446,124.662 26.196,123.794 26.539,122.728 26.318,121.258 27.695,120.834 
					28.142,119.761 28.639,118.677 29.794,118.226 30.549,117.384 31.851,117.242 32.113,115.665 33.321,115.448 34.124,114.536 
					35.209,114.144 36.545,114.463 37.638,114.28 38.588,113.565 39.636,113.082 40.775,113.084 41.875,112.66 43.016,112.329 
					44.165,112.52 45.265,113.007 46.453,112.759 47.615,112.843 48.361,114.399 49.498,114.442 50.804,114.197 51.745,114.871 
					52.56,115.717 53.429,116.415 54.293,117.101 55.245,117.673 56.104,118.375 56.995,119.059 57.533,120.066 58.625,120.626 
					59.086,121.677 59.081,122.972 60.515,123.457 61.396,124.316 61.776,125.417 61.224,126.792 61.754,127.803 61.977,128.9 
					62.762,129.936 61.743,131.152 				"/>
			</g>
			<g>
				<radialGradient id="SVGID_5_" cx="42.9753" cy="132.3691" r="12.3541" gradientUnits="userSpaceOnUse">
					<stop  offset="0" style="stop-color:#FFD300"/>
					<stop  offset="0.6994" style="stop-color:#F16528"/>
					<stop  offset="0.8589" style="stop-color:#F05A28"/>
				</radialGradient>
				<polygon fill="url(#SVGID_5_)" points="55.052,132.244 54.569,133.316 54.414,134.376 54.675,135.562 54.236,136.591 
					53.465,137.447 53.35,138.644 52.667,139.534 51.776,140.231 51.152,141.17 50.514,142.174 49.321,142.428 48.378,143.013 
					47.528,143.89 46.278,143.708 45.245,144.163 44.168,144.672 43.016,144.295 41.921,144.051 40.799,144.103 39.741,143.751 
					38.796,143.137 37.584,143.151 36.625,142.563 35.986,141.554 34.678,141.389 33.759,140.682 33.497,139.431 32.684,138.64 
					32.182,137.638 32.143,136.457 31.507,135.52 30.857,134.518 31.252,133.335 30.57,132.244 30.799,131.112 30.801,129.96 
					31.581,128.99 31.869,127.925 31.979,126.747 32.402,125.671 33.089,124.746 34.278,124.277 35.067,123.522 35.603,122.426 
					36.523,121.756 37.563,121.292 38.762,121.265 39.844,121.098 40.874,120.794 41.918,120.405 43.016,120.286 44.101,120.546 
					45.293,120.066 46.356,120.508 47.494,120.687 48.588,121.059 49.154,122.333 50.47,122.376 51.154,123.32 51.587,124.433 
					52.534,125.059 53.05,126.034 53.925,126.812 54.059,127.966 54.334,129.024 55.282,129.951 55.381,131.098 				"/>
			</g>
		</g>
	</g>
	<path fill="none" stroke="#FFFFFF" stroke-width="2.2458" stroke-miterlimit="10" stroke-dasharray="2.2458,4.4915" d="
		M50.878,182.357"/>
	
		<line fill="none" stroke="#FFFFFF" stroke-width="4.4915" stroke-linecap="round" stroke-linejoin="round" stroke-miterlimit="10" stroke-dasharray="1.2756,7.6535" x1="59.594" y1="155.576" x2="84.192" y2="188.43"/>
	
		<line fill="none" stroke="#FFFFFF" stroke-width="4.4915" stroke-linecap="round" stroke-linejoin="round" stroke-miterlimit="10" stroke-dasharray="1.2756,7.6535" x1="50.358" y1="158.104" x2="68.462" y2="199.482"/>
	
		<line fill="none" stroke="#FFFFFF" stroke-width="4.4915" stroke-linecap="round" stroke-linejoin="round" stroke-miterlimit="10" stroke-dasharray="1.2756,7.6535" x1="42.328" y1="160.234" x2="44.665" y2="202.181"/>
	
		<line fill="none" stroke="#FFFFFF" stroke-width="4.4915" stroke-linecap="round" stroke-linejoin="round" stroke-miterlimit="10" stroke-dasharray="1.2756,7.6535" x1="69.26" y1="153.274" x2="109.804" y2="187.174"/>
	<circle fill-rule="evenodd" clip-rule="evenodd" fill="#F05A28" cx="191.372" cy="98.248" r="1.481"/>
	<path fill="#005D3E" d="M101.632,189.768c5.055-9.065-0.74-27.238-4.279-36.477c-2.99-7.815-6.966-15.526-11.738-22.442
		c-4.68-6.788-20.15-30.624-24.231-28.833c-6.78,2.952,11.01,37.208,20.827,48.027c5.3,5.841,9.108,14.149,13.09,21.038
		c3.682,6.366,4.294,16.662,8.429,22.246"/>
	<path fill="#005D3E" d="M135.315,176.443c6.287-19.818,5.314-41.484,0.501-61.254c-5.717-23.473-10.731-63.156,1.62-75.371
		c2.704-0.726,0.619,8.432,0.605,11.968c-0.026,6.565,0.473,12.921,1.127,19.227c1.154,11.155,5.098,22.316,5.248,33.468
		c0.146,10.825,1.347,26.289,0.081,37.34c-1.454,12.678,0,23.9-4.489,34.859"/>
	<path fill="#005D3E" d="M107.566,176.445c0.8-6.412-0.377-14.088-0.67-20.502c-0.38-8.367-0.728-16.812-0.435-25.179
		c0.266-7.572-1.435-16.162,0.658-23.335c1.359-4.654,8.195-46.946,13.193-46.195c5.037-1.279-0.303,44.794-1.826,51.07
		c-1.761,7.266-3.979,14.278-5.528,21.878c-1.785,8.759-1.898,17.629-2.306,26.639c-0.213,4.743,1.38,16.088-1.97,19.199
		c-0.515-1.114-0.815-2.328-0.72-3.559"/>
	<path fill="#005D3E" d="M104.016,195.477c0.925-8.25,8.034-11.66,10.638-19.457c2.47-7.398,5.542-20.032,7.129-27.73
		c1.487-7.205,2.951-17.529,3.301-24.953c0.18-3.768,0.99-14.152-4.503-15.397c-3.497,12.888-5.923,25.277-7.176,38.574
		c-0.792,8.393-1.35,16.207-2.917,24.719c-0.826,4.498-2.051,8.448-3.625,12.725c-1.628,4.427-5.237,9.56-5.363,14.205
		c0.581-3.867,8.168-14.629,11.155-16.807"/>
	<g>
		<g>
			<path fill="#005D3E" d="M89.792,93.518c1.605,21.583,2.682,43.364,6.132,64.756c2.998,18.584,8.432,36.712,13.481,54.812
				c0.798,2.86,5.609,1.163,4.812-1.697c-4.941-17.712-10.248-35.44-13.25-53.611c-3.53-21.367-4.529-43.188-6.133-64.756
				C94.606,89.957,89.575,90.61,89.792,93.518L89.792,93.518z"/>
		</g>
	</g>
	<path fill="#005D3E" d="M140.933,189.355c-3.3-5.316,1.318-21.127,5.103-35.598c2.86-10.938,5.357-21.5,8.322-32.415
		c2.728-10.055,6.184-19.962,7.437-30.155c1.159-9.417,3.177-18.835,5.458-27.654c0.225,10.781,3.507,21.868,4.049,32.77
		c0.537,10.8-3.632,20.388-8.494,29.785c-8.328,16.1-18.971,46.398-18.971,64.851"/>
	<g>
		<path fill="#FFF100" stroke="#F6921E" stroke-width="3.8682" stroke-miterlimit="10" d="M121.741,69.379
			c-8.743-4.638-14.401-6.335-20.987-4.646c2.18-14.162-7.399-25.375-7.399-25.375C82.09,45.885,76.349,56.383,76.422,65.452
			c0,0.073,0.004,0.146,0.005,0.219c-3.211-5.029-7.191-8.665-11.299-10.549c-7.905-3.624-18.062-2.581-18.062-2.581
			s-0.021,3.463,6.181,16.447c1.973,4.129,4.425,7.156,7.149,9.313c-3.426,0.532-6.446,1.728-8.859,3.477
			C44.752,86.693,39.601,97.14,39.601,97.14s4.882,1.175,16.648,3.727c4.308,0.934,8.017,0.318,11.127-0.92
			c-1.055,2.792-1.607,5.61-1.631,8.311c-0.088,9.06,5.023,19.435,5.023,19.435s1.984-0.445,10.94-9.622
			c3.684-3.773,7.73-8.729,7.291-18.524c0.494,0.845,0.236-1.357,0.811-0.391c10.717,17.95,30.665,10.303,30.665,10.303
			c-2.863-10.338-8.304-18.09-14.294-22.443C117.584,83.233,121.741,69.379,121.741,69.379z"/>
		<g>
			
				<linearGradient id="SVGID_6_" gradientUnits="userSpaceOnUse" x1="86.3342" y1="66.0234" x2="120.4236" y2="66.0234" gradientTransform="matrix(0.5475 -0.8368 0.8368 0.5475 -25.7932 132.1726)">
				<stop  offset="0" style="stop-color:#F6921E"/>
				<stop  offset="1" style="stop-color:#EB2026"/>
			</linearGradient>
			<path fill="url(#SVGID_6_)" d="M99.651,93.812l-3.752,0.136l-0.776,2.883l-3.438-0.313l-1.251,1.29l-3.881,1.103l-2.616-1.059
				l-2.553-0.123l-3.398-3.265l-2.803,0.603l-1.167-3.258l-1.284-0.121l-0.233-2.897l-2.452-1.086l1.401-2.896l-1.869-1.328
				l-0.49-4.187l1.811-1.523l-0.909-2.364l2.305-2.052l0.472-4.009l3.522,0.139l0.991-2.579l2.823,0.491l1.947-3.16l4.395,2.611
				l0.667,0.182l2.393-0.799l2.371,1.022l3.054-0.004l2.836,2.813l0.749,1.772l2.106,1.33l1.04,3.595l-0.17,3.081l-0.301,1.516
				l0.311,1.845l-0.281,2l0.523,4.268l-2.602,0.795L99.651,93.812z M92.671,86.221l2.706-0.828l-0.032-0.243l0.264-1.872
				l-0.336-2.006l0.459-2.325L95.8,77.44l-0.173-0.6l-1.789-1.129l-1.007-2.394l-0.316-0.313l-1.854,0.003l-1.424-0.616
				l-1.956,0.653l-3.269-0.931l-1.004,1.631l-1.993-0.348l-0.767,1.998l-2.322-0.09l-0.103,0.871l-0.977,0.87L77.8,79.52
				l-2.146,1.807l0.004,0.017l0.972,1.923l0.809,2.255l0.017,1.788l0.481,0.686l1.102-0.652l0.106,2.146l1.501-0.584l0.949,2.069
				l1.645-0.374l1.401,1.208l0.66,1.021l2.019-1.492l2.809,0.832l0.631-1.513l0.618-2.298l1.595-0.059L92.671,86.221z"/>
		</g>
	</g>
	<circle fill="#F05A28" cx="98.148" cy="83.987" r="1.073"/>
	<path fill="#005D3E" d="M162.576,221.422c-13.32-18.197,4.068-66.632,29.848-83.282c9.608-2.319-16.902,32.523-22.176,44.124
		c-4.552,10.012-9.326,15.595-8.274,39.817"/>
	<path fill="#005D3E" d="M151.388,225.129c-6.919-22.56,21.643-60.361,49.065-65.021c9.17,1.881-21.807,15.214-29.631,23.801
		c-6.756,7.411-22.057,32.453-20.15,41.58"/>
	<path fill="#005D3E" d="M140.934,199.66c25.083-13.579,28.688-64.65,16.694-74.513c-9.013-3.271-0.849,29.812-1.969,40.341
		c-0.968,9.09-5.03,28.859-14.46,34.813"/>
	<g>
		<circle fill="#F05A28" cx="91.414" cy="78.705" r="1.32"/>
		<circle fill="#F05A28" cx="94.054" cy="82.139" r="0.989"/>
		<circle fill="#F05A28" cx="86.991" cy="81.082" r="0.989"/>
		<circle fill="#F05A28" cx="89.565" cy="83.722" r="0.989"/>
		<circle fill="#FAAF40" cx="82.395" cy="81.31" r="0.99"/>
		<circle fill="#FAAF40" cx="93.791" cy="85.637" r="0.99"/>
	</g>
	<circle fill="#EE4036" cx="89.697" cy="88.873" r="1.32"/>
	<circle fill="#EE4036" cx="83.94" cy="85.36" r="1.32"/>
	<path fill="#21C0E0" stroke="#231F20" stroke-width="6.7373" stroke-miterlimit="10" d="M205.339,192.189h-38.173v-12.447
		c0-1.234-1.009-2.246-2.244-2.246H89.152c-1.236,0-2.245,1.012-2.245,2.246v12.447H49.101c-5.296,0-9.626,4.331-9.626,9.625v30.088
		c0,5.293,4.33,9.623,9.626,9.623h156.238c5.292,0,9.626-4.33,9.626-9.623v-30.088C214.965,196.521,210.631,192.189,205.339,192.189
		z"/>
	<g>
		<path fill="#231F20" d="M63.396,232.242c-3.163,0-6.559-0.123-10.094-0.365l-0.476-0.031V203.02l0.476-0.031
			c3.54-0.243,6.936-0.366,10.094-0.366c4.239,0,7.261,1.112,8.985,3.306c1.717,2.186,2.552,5.949,2.552,11.504
			c0,5.559-0.835,9.32-2.553,11.505C70.657,231.131,67.635,232.242,63.396,232.242z M57.887,227.607
			c1.614,0.066,3.465,0.1,5.509,0.1c2.364,0,3.947-0.688,4.839-2.104c0.926-1.469,1.395-4.221,1.395-8.172
			c0-3.949-0.469-6.699-1.395-8.17c-0.892-1.418-2.475-2.104-4.839-2.104c-0.808,0-1.876,0.007-3.208,0.021
			c-0.982,0.01-1.75,0.016-2.302,0.02V227.607z"/>
		<path fill="#231F20" d="M85.814,232.242c-1.951,0-3.539-0.531-4.722-1.583c-1.2-1.067-1.808-2.581-1.808-4.502v-2.06
			c0-1.707,0.548-3.059,1.626-4.018c1.062-0.943,2.562-1.422,4.459-1.422h7.407v-1.024c-0.022-1.04-0.248-1.758-0.669-2.116
			c-0.303-0.257-1.025-0.562-2.739-0.562c-1.457,0-4.257,0.162-8.321,0.481l-0.485,0.038l-0.488-3.834l0.48-0.084
			c3.562-0.62,6.812-0.937,9.663-0.937c2.512,0,4.404,0.53,5.625,1.579c1.244,1.066,1.875,2.895,1.875,5.435v14.245h-4.023
			l-0.366-2.566C91.137,231.258,88.615,232.242,85.814,232.242z M86.105,222.629c-0.702,0.023-1.185,0.188-1.435,0.484
			c-0.271,0.321-0.407,0.829-0.407,1.51v1.051c0,0.817,0.177,1.399,0.525,1.729c0.358,0.337,0.974,0.508,1.832,0.508
			c2.142,0,4.211-0.832,6.155-2.472v-2.81H86.105z"/>
		<path fill="#231F20" d="M105.218,231.879v-16.684h-3.555v-3.819l3.555-0.202v-2.951c0-0.197,0.327-20.155,1.51-21.426
			c1.013-1.087,2.646-1.637,4.859-1.637c2.538,0,4.479,0.096,5.77,0.288l0.487,0.071l-0.428,3.854h-4.457
			c-1.01,0-1.73,0.164-2.144,0.487c-0.393,1.544-0.658,16.72-0.658,18.807v2.478h6.102v4.051h-6.102v16.684H105.218z"/>
		<path fill="#231F20" d="M121.78,231.879v-16.684h-3.555v-3.819l3.555-0.202v-2.951c0-0.191,0.327-19.5,1.509-20.772
			c1.012-1.087,2.647-1.636,4.857-1.636c2.54,0,4.48,0.098,5.771,0.289l0.488,0.072l-0.43,3.852h-4.456
			c-1.012,0-1.732,0.164-2.146,0.488c-0.392,1.51-0.657,16.143-0.657,18.151v2.478h6.101v4.051h-6.101v16.684H121.78z"/>
		<path fill="#231F20" d="M145.475,232.404c-3.553,0-6.126-0.846-7.646-2.51c-1.531-1.674-2.274-4.402-2.274-8.341
			c0-3.884,0.765-6.702,2.271-8.38c1.522-1.694,4.096-2.554,7.65-2.554c3.557,0,6.129,0.859,7.652,2.554
			c1.506,1.676,2.271,4.495,2.271,8.38c0,3.94-0.743,6.669-2.274,8.341C151.603,231.559,149.03,232.404,145.475,232.404z
			 M145.475,214.955c-1.869,0-3.143,0.434-3.791,1.291c-0.685,0.9-1.029,2.687-1.029,5.308c0,2.593,0.345,4.364,1.029,5.265
			c0.646,0.857,1.922,1.292,3.791,1.292c1.87,0,3.146-0.435,3.795-1.29c0.682-0.902,1.028-2.674,1.028-5.267
			c0-2.621-0.347-4.407-1.028-5.308C148.621,215.389,147.345,214.955,145.475,214.955z"/>
		<path fill="#231F20" d="M167.049,232.364c-2.601,0-4.518-0.958-5.705-2.845c-1.137-1.811-1.715-4.531-1.715-8.088
			c0-3.924,0.631-6.637,1.926-8.293c1.309-1.67,3.359-2.519,6.098-2.519c2.225,0,4.307,0.472,6.205,1.399
			c-0.059-0.924-0.091-1.926-0.091-2.988v-6.449h4.939v29.297h-4.032l-0.27-2.244C172.016,231.447,169.545,232.364,167.049,232.364z
			 M168.621,215.033c-1.483,0-2.512,0.396-3.055,1.177c-0.582,0.837-0.875,2.581-0.875,5.183c0,2.609,0.291,4.393,0.868,5.299
			c0.538,0.848,1.46,1.259,2.821,1.259c0.916,0,1.734-0.161,2.433-0.479s1.69-0.906,2.953-1.748v-9.834
			C171.554,215.32,169.824,215.033,168.621,215.033z"/>
		<path fill="#231F20" d="M184.918,231.879v-20.734h4.897v20.734H184.918z M186.436,208.328c-1.043,0-1.641-0.613-1.641-1.683
			v-2.261c0-1.042,0.598-1.64,1.641-1.64h1.859c1.043,0,1.641,0.598,1.641,1.64v2.261c0,1.069-0.598,1.683-1.641,1.683H186.436z"/>
		<path fill="#231F20" d="M201.543,232.242c-1.668,0-3.014-0.506-3.998-1.506c-0.981-0.994-1.479-2.399-1.479-4.175v-23.979h4.936
			v23.092c-0.021,0.707,0.127,1.195,0.453,1.512c0.328,0.32,0.86,0.48,1.582,0.48h2.26l0.565,3.85l-0.353,0.158
			C204.652,232.057,203.354,232.242,201.543,232.242z"/>
	</g>
	<g>
		
			<polygon fill="#FFF100" stroke="#FFF100" stroke-width="1.597" stroke-linecap="round" stroke-linejoin="round" stroke-miterlimit="10" points="
			109.227,184.629 112.964,187.418 115.358,183.418 116.028,188.03 120.549,186.895 117.761,190.632 121.762,193.024 
			117.148,193.693 118.284,198.217 114.549,195.43 112.155,199.43 111.486,194.815 106.963,195.953 109.75,192.216 105.75,189.823 
			110.364,189.152 		"/>
		<path fill="#F6921E" d="M111.657,191.168c0-1.398,1.136-2.537,2.537-2.537c1.4,0,2.534,1.139,2.534,2.537
			c0,1.4-1.134,2.537-2.534,2.537C112.793,193.705,111.657,192.568,111.657,191.168z"/>
	</g>
	<g>
		
			<polygon fill="#FFF100" stroke="#FFF100" stroke-width="1.597" stroke-linecap="round" stroke-linejoin="round" stroke-miterlimit="10" points="
			127.449,184.629 131.185,187.418 133.58,183.418 134.251,188.03 138.774,186.895 135.985,190.632 139.985,193.024 
			135.373,193.693 136.508,198.217 132.77,195.43 130.378,199.43 129.706,194.815 125.185,195.953 127.973,192.216 123.971,189.823 
			128.585,189.152 		"/>
		<path fill="#F6921E" d="M129.88,191.168c0-1.398,1.135-2.537,2.536-2.537c1.402,0,2.536,1.139,2.536,2.537
			c0,1.4-1.134,2.537-2.536,2.537C131.015,193.705,129.88,192.568,129.88,191.168z"/>
	</g>
	<g>
		<path fill="#FFF100" stroke="#F6921E" stroke-width="3.32" stroke-miterlimit="10" d="M178.684,36.919
			c-8.719,0.895-14.254,4.141-17.241,8.275c-6.198-10.474-21.388-15.372-21.388-15.372c-2.6,9.508,1.027,19.145,7.329,25.171
			c0.056,0.046,0.106,0.096,0.159,0.143c-5.494-1.894-10.517-2.505-14.407-1.887c-7.488,1.187-11.992,7.122-11.992,7.122
			s1.919,4.789,13.763,8.741c4.312,1.437,8.037,1.587,11.245,1.784c-1.793,1.921-2.837,4.103-3.188,6.372
			c-1.347,8.721,3.226,15.737,3.226,15.737s2.143-0.164,10.635-3.694c3.315-1.379,7.565-4.89,8.671-7.138
			c1.262,2.347,2.86,4.482,4.707,6.299c6.199,6.091,13.088,10.811,13.088,10.811s2.141-14.554-4.467-26.172
			c16.678-0.817,26.724-8.834,26.724-8.834c-8.942-5.6-17.724-8.293-24.504-8.465C185.623,48.076,178.684,36.919,178.684,36.919z"/>
		<g>
			
				<linearGradient id="SVGID_7_" gradientUnits="userSpaceOnUse" x1="167.3147" y1="253.626" x2="199.1717" y2="216.3592" gradientTransform="matrix(0.9833 0.1819 -0.1819 0.9833 40.5615 -216.0017)">
				<stop  offset="0" style="stop-color:#F05A28"/>
				<stop  offset="0.0436" style="stop-color:#F26B25"/>
				<stop  offset="0.1426" style="stop-color:#F68D1E"/>
				<stop  offset="0.1963" style="stop-color:#F89A1C"/>
				<stop  offset="0.5337" style="stop-color:#FFF100"/>
			</linearGradient>
			<path fill="url(#SVGID_7_)" d="M184.045,36.547l-3.43,0.066l-0.8-0.43l-4.7-4.398l-3.779,2.841l-3.48-1.512l-2.305,2.524
				l0.932,6.012c-0.076,0.126-0.154,0.25-0.204,0.388c-0.796,2.25-3.108,7.173-9.389,16.826
				c-5.946,9.134,2.337,16.968,10.421,11.384c8.762-6.052,22.379-10.758,25.741-10.538c-2.966-2.588,0.204-4.054,0.204-4.054
				l2.488-3.274l0.059-4.344l-2.226-2.195l-0.274-2.222l-2.596-4.091l-3.982-1.04"/>
			<g>
				<g>
					
						<linearGradient id="SVGID_8_" gradientUnits="userSpaceOnUse" x1="275.0891" y1="-306.7617" x2="253.0389" y2="-296.1866" gradientTransform="matrix(0.9361 -0.3517 0.3517 0.9361 40.2756 421.8103)">
						<stop  offset="0" style="stop-color:#F6921E"/>
						<stop  offset="1" style="stop-color:#ED4926"/>
					</linearGradient>
					<path fill="url(#SVGID_8_)" d="M193.821,62.114l-3.646-1.113l-0.742,2.164l-3.34-1.386l-1.211,0.667l-3.765-0.343l-2.542-1.742
						l-2.479-0.938l-3.948-3.833l-1.793-1.58l-1.907-2.114l-1.835-2.861l-0.03-2.182l-0.406-1.109l-0.996-1.968l-1.084-3.816
						l1.752-0.683l-0.888-2.277l2.23-0.966l0.444-3.205l3.423,1.269l0.951-1.838l2.744,1.337l1.879-2.015l4.276,3.625l0.648,0.371
						l2.267-0.404l2.358,2.146l2.966,0.997l2.839,2.95l0.147,2.571l3.103,1.421l1.169,3.205l-0.849,2.544l-0.285,1.173l1.076,1.722
						l-1.037,1.507l0.523,3.749l-2.523-0.186L193.821,62.114z M187.018,53.47l2.624,0.192l-0.03-0.213l0.25-1.482l-0.334-1.79
						l0.438-1.798l0.062-1.24l-0.171-0.562l-1.74-1.53l-0.984-2.333l-0.309-0.367l-1.801-0.603l-1.383-0.981l-1.898-0.093
						l-3.175-1.849l-0.974,1.038l-1.932-0.942l-0.738,1.424l-2.26-0.837l-0.093,0.698l-0.947,0.409l0.935,2.385l-2.079,0.812
						l0.005,0.017l0.949,1.929l0.795,2.154l0.018,1.501l0.471,0.734l1.072,1.191l1.564,1.375l2.727,2.646l1.721,0.652l1.623,1.113
						l0.42,0.038l2.041-1.13l1.292,0.537l0.591-1.725l1.551,0.473L187.018,53.47z"/>
				</g>
				<g>
					<path fill="#F05A28" d="M181.778,44.248c-0.166,0.737-0.934,1.243-1.709,1.128c-0.779-0.114-1.276-0.804-1.109-1.541
						c0.164-0.738,0.932-1.242,1.709-1.129C181.447,42.821,181.943,43.511,181.778,44.248z"/>
					<path fill="#F05A28" d="M183.459,48.081c-0.123,0.552-0.697,0.932-1.281,0.846c-0.582-0.085-0.953-0.602-0.83-1.155
						c0.125-0.553,0.698-0.932,1.281-0.847C183.213,47.011,183.584,47.529,183.459,48.081z"/>
					<path fill="#F05A28" d="M176.16,45.907c-0.123,0.552-0.699,0.93-1.279,0.845c-0.585-0.086-0.956-0.603-0.831-1.157
						c0.124-0.552,0.698-0.93,1.281-0.844C175.914,44.837,176.285,45.353,176.16,45.907z"/>
					<path fill="#F05A28" d="M178.307,48.979c-0.126,0.552-0.699,0.931-1.281,0.845s-0.954-0.603-0.83-1.155
						c0.125-0.554,0.698-0.932,1.282-0.847C178.061,47.908,178.432,48.425,178.307,48.979z"/>
					<path fill="#FAAF40" d="M186.156,45.165c-0.125,0.554-0.698,0.933-1.283,0.848c-0.582-0.085-0.957-0.604-0.832-1.157
						c0.125-0.552,0.699-0.93,1.283-0.845C185.906,44.096,186.281,44.614,186.156,45.165z"/>
					<path fill="#FAAF40" d="M182.38,51.577c-0.125,0.552-0.696,0.932-1.283,0.846c-0.58-0.085-0.952-0.603-0.828-1.156
						c0.125-0.553,0.7-0.931,1.282-0.846C182.134,50.507,182.505,51.025,182.38,51.577z"/>
				</g>
			</g>
		</g>
	</g>
	<g>
		<path fill="#FFF100" stroke="#F6921E" stroke-width="3.6344" stroke-miterlimit="10" d="M242.84,124.366
			c-5.456-7.642-14.275-10.264-20.58-11.764c8.987-8.68,7.175-23.444,7.175-23.444c-12.329,0.422-21.654,6.526-25.437,14.003
			c-0.032,0.062-0.059,0.124-0.088,0.185c-0.593-5.538-2.432-10.266-5.119-13.614c-5.172-6.44-14.234-10.036-14.234-10.036
			s-1.486,2.835-1.729,16.213c-0.076,4.256,0.721,7.815,2.12,10.782c-3.134-1.067-6.205-1.408-8.997-1.03
			c-7.842,1.062-16.643,7.381-16.643,7.381s3.645,3.106,12.553,10.358c3.259,2.655,6.667,3.777,9.833,4.121
			c-2.079,1.83-3.742,3.902-4.909,6.109c-3.915,7.4-3.975,18.158-3.975,18.158s5.77-0.432,13.364-3.105
			c4.673-1.644,10.261-3.779,14.042-12.013c0.062,0.911,0.775-1.012,0.854,0.034c1.487,19.436,24.515,24.928,24.515,24.928
			c2.071-12.191-0.919-22.773-5.472-27.722C231.397,135.804,242.84,124.366,242.84,124.366z"/>
		<g>
			<linearGradient id="SVGID_9_" gradientUnits="userSpaceOnUse" x1="189.8088" y1="119.3701" x2="221.0891" y2="119.3701">
				<stop  offset="0" style="stop-color:#F6921E"/>
				<stop  offset="1" style="stop-color:#EB2026"/>
			</linearGradient>
			<path fill="url(#SVGID_9_)" d="M202.955,135.79l-1.978-2.793l-2.61,0.866l-1.473-2.779l-1.619-0.303l-2.786-2.401l-0.487-2.527
				l-1.178-2.008l-1.016-4.601l2.325-1.991l-0.661-2.382l1.131-2.785l1.991-1.329l0.688-0.901l0.999-1.762l2.631-2.924l2.078,0.611
				l1.371-1.885l2.729,0.721l3.329-1.665l1.65,2.755l2.484-0.549l1.026,2.399l3.41-0.11l0.178,4.667l0.191,0.6l1.809,1.42
				l0.394,2.32l1.526,2.326l-0.755,3.582l-0.994,1.465l0.024,2.277l-2.255,2.606l-2.461,1.426l-1.32,0.537l-1.268,1.168
				l-1.682,0.794l-3.033,2.552l-1.91-1.58L202.955,135.79z M205.33,126.638l1.986,1.644l0.172-0.146l1.577-0.745l1.378-1.269
				l2.023-0.823l1.197-0.708l0.374-0.437l-0.02-1.932l1.343-1.975l0.085-0.401l-0.927-1.412l-0.235-1.396l-1.479-1.161l-0.911-2.958
				l-1.76,0.057l-0.724-1.694l-1.926,0.426l-1.088-1.817l-0.723,0.361l-1.158-0.304l-1.432,1.973l-2.465-0.722l-0.011,0.011
				l-0.999,1.712l-1.336,1.756l-1.372,0.913l-0.288,0.714l-0.215,1.343l0.018,1.734l-0.197,3.177l0.818,1.395l0.309,1.615
				l0.31,0.265l2.728,0.513l0.57,1.073l2.081-0.688l0.841,1.186L205.33,126.638z"/>
		</g>
		<g>
			<circle fill="#F05A28" cx="205.347" cy="117.229" r="1.349"/>
			<circle fill="#F05A28" cx="208.047" cy="120.739" r="1.012"/>
			<circle fill="#F05A28" cx="200.824" cy="119.659" r="1.012"/>
			<circle fill="#F05A28" cx="203.455" cy="122.36" r="1.012"/>
			<circle fill="#FAAF40" cx="209.936" cy="117.499" r="1.011"/>
			<path fill="#FAAF40" d="M208.789,124.315c0,0.561-0.453,1.014-1.012,1.014c-0.56,0-1.014-0.454-1.014-1.014
				c0-0.557,0.454-1.01,1.014-1.01C208.336,123.306,208.789,123.758,208.789,124.315z"/>
		</g>
	</g>
</g>
</svg>
