<?xml version="1.0" encoding="utf-8"?>
<!-- Generator: Adobe Illustrator 15.0.0, SVG Export Plug-In . SVG Version: 6.00 Build 0)  -->
<!DOCTYPE svg PUBLIC "-//W3C//DTD SVG 1.1//EN" "http://www.w3.org/Graphics/SVG/1.1/DTD/svg11.dtd">
<svg version="1.1" xmlns="http://www.w3.org/2000/svg" xmlns:xlink="http://www.w3.org/1999/xlink" x="0px" y="0px"
	 width="305.333px" height="259.333px" viewBox="0 0 305.333 259.333" enable-background="new 0 0 305.333 259.333"
	 xml:space="preserve">
<g id="bg" display="none">
	
		<rect x="-27.167" y="-16" display="inline" fill-rule="evenodd" clip-rule="evenodd" fill="#27AAE1" stroke="#FFFFFF" stroke-width="6.6723" stroke-miterlimit="10" width="387.5" height="283.5"/>
</g>
<g id="Layer_1">
	<g>
		<defs>
			<circle id="SVGID_1_" cx="162.017" cy="114.902" r="84.402"/>
		</defs>
		<clipPath id="SVGID_2_">
			<use xlink:href="#SVGID_1_"  overflow="visible"/>
		</clipPath>
		<g clip-path="url(#SVGID_2_)">
			<g>
				<path fill-rule="evenodd" clip-rule="evenodd" fill="#BCBEC0" d="M38.788,141.924c7.119,7.211,24.07,1.862,46.197,3.973
					c15.387,1.69,29.656,16.287,50.274,5.187c0.146-21.135-16.572-34.017-21.716-52.415c-5.253-18.787-11.125-31.699-24.109-38.247
					C82.791,46.669,71.25,41.19,62.895,30.327c3.768-0.965,7.537-1.932,11.305-2.897c14.429,12.752,25.538,31.11,44.092,36.89
					c4.687-3.619,24.256-28.341,28.592-32.168c1.026,4.004,14.624-2.961,15.65,1.043c-22.171,16.453-41.212,39.125-36.853,54.08
					c1.859,6.38,7.647,10.612,11.249,17.448c7.058,13.394,9.918,29.642,16.699,41.653c1.051,4.097,2.101,8.195,3.151,12.293
					c0.153,0.6,15.709,4.271,32.956,8.28c12.296,2.858,24.786,2.799,33.834,5.01c6.776,1.655,11.916,5.939,11.998,6.26
					c1.081,4.211-10.99,7.788-9.912,11.999c-7.727-3.908-78.526-16.72-89.024-16.144c-26.394,1.45-48.719-31.438-96.403-17.711
					L38.788,141.924z"/>
			</g>
		</g>
	</g>
	<path fill="#EF4136" stroke="#B9E5FB" stroke-width="7.5208" stroke-miterlimit="10" d="M155.334,181.029"/>
	<path fill="#EF4136" stroke="#B9E5FB" stroke-width="7.5208" stroke-miterlimit="10" d="M160.318,172.722"/>
	<path fill-rule="evenodd" clip-rule="evenodd" d="M153.072,196.983"/>
	<path stroke="#9B8579" stroke-width="1.9189" stroke-miterlimit="10" d="M141.797,188.524"/>
	<g>
		<path fill="#39B54A" d="M163.186,203c-51.01,0-92.509-41.5-92.509-92.509s41.499-92.509,92.509-92.509
			s92.509,41.499,92.509,92.509S214.195,203,163.186,203z M163.186,29.023c-44.921,0-81.468,36.546-81.468,81.467
			c0,44.922,36.546,81.469,81.468,81.469c44.922,0,81.468-36.547,81.468-81.469C244.654,65.569,208.107,29.023,163.186,29.023z"/>
	</g>
	<g>
		<g>
			<path fill-rule="evenodd" clip-rule="evenodd" fill="#F9BCC6" d="M262.377,221.582c0,3.229-2.644,5.871-5.872,5.871H70.728
				c-3.229,0-5.872-2.643-5.872-5.871V187.33c0-3.229,2.643-5.872,5.872-5.872h185.777c3.229,0,5.872,2.643,5.872,5.872V221.582z"/>
		</g>
		<g>
			<path fill="#009444" d="M256.505,231.368H70.728c-5.396,0-9.786-4.391-9.786-9.786V187.33c0-5.396,4.39-9.787,9.786-9.787
				h185.777c5.396,0,9.786,4.392,9.786,9.787v34.252C266.291,226.978,261.901,231.368,256.505,231.368z M70.728,185.373
				c-1.061,0-1.957,0.896-1.957,1.957v34.252c0,1.061,0.896,1.957,1.957,1.957h185.777c1.062,0,1.958-0.896,1.958-1.957V187.33
				c0-1.061-0.896-1.957-1.958-1.957H70.728z"/>
		</g>
	</g>
	<g>
		<path fill-rule="evenodd" clip-rule="evenodd" fill="#1C75BC" d="M81.265,152.8c-27.824,29.742-18.549,23.026-60.125,73.557
			c21.107-9.594,16.808-5.364,35.019-19.829c22.547-17.909,33.9-30.702,54.368-56.287"/>
		<g>
			<path d="M76.81,153.383c-21.663,23.182-39.993,49.067-60.125,73.557c-2.333,2.838,5.546,0.929,6.291,0.592
				c7.014-3.169,14.417-5.71,21.162-9.44c8.396-4.644,15.906-11.463,23.227-17.571c17.983-15.005,33.02-32.636,47.618-50.862
				c1.411-1.762-1.456-1.836-2.517-1.698c-2.095,0.273-5.005,1.13-6.394,2.864c-13.92,17.381-28.183,34.218-45.184,48.691
				c-6.966,5.931-14.148,12.28-22.016,17.01c-6.029,3.625-13.176,5.768-19.568,8.656c2.097,0.197,4.194,0.395,6.291,0.592
				c20.131-24.49,38.461-50.375,60.125-73.557c1.589-1.7-1.607-1.817-2.517-1.698C80.974,150.81,78.383,151.7,76.81,153.383
				L76.81,153.383z"/>
		</g>
	</g>
	
		<path fill-rule="evenodd" clip-rule="evenodd" fill="#FFFFFF" stroke="#000000" stroke-width="2.8347" stroke-linecap="round" stroke-linejoin="round" stroke-miterlimit="10" d="
		M218.97,52.183c0,0,0.686,3.303-2.938,7.443c-13.824,15.799-2.174,60.676-48.623,84.24c-6.792,6.935-2.371,13.764-2.371,13.764
		s-12.173,5.34-15.013-5.862c-8.596,2.869-37.379,18.859-52.091,20.139s-14.071-19.188-14.071-19.188"/>
	<path fill-rule="evenodd" clip-rule="evenodd" fill="#1C75BC" d="M179.126,68.369c0,0,5.756,3.198,9.594,13.432
		c3.837,10.234-1.87,36.606-33.26,53.728c-49.251,26.864-99.78,31.342-99.78,31.342l20.468-20.547c0,0,22.578-12.045,32.62-30.623
		c12.792-23.666,29.423-39.657,42.855-49.251s12.08-11.541,12.08-11.541L179.126,68.369z"/>
	<path fill-rule="evenodd" clip-rule="evenodd" fill="#E73B43" d="M214.744,63.568c-6.077,11.099-2.675,10.239-12.271,38.381
		c-2.239-4.158-0.64-5.277-1.919-6.396c-1.475-0.734-3.968,1.698-4.317-0.16c2.079-8.795-2.878-3.838-3.679-3.999
		c-4.605-18.573-20.947-23.265-28.313-42.139c4.926-27.16,39.433-40.634,58.196-18.875
		C222.733,35.365,235.734,37.028,214.744,63.568z"/>
	<g>
		<circle fill-rule="evenodd" clip-rule="evenodd" fill="#FFFFFF" cx="204.805" cy="40.293" r="5.165"/>
		<path fill-rule="evenodd" clip-rule="evenodd" d="M204.214,36.374c1.019,0.336,0.177,2.541,0.454,3.625
			c1.963,0.303,1.221-2.103,1.358-3.625c4.227,1.65,4.281,5.261,2.395,7.018c-2.371,2.209-8.443,1.286-6.929-4.753
			C202.239,37.185,203.213,37.037,204.214,36.374z"/>
	</g>
	<path fill-rule="evenodd" clip-rule="evenodd" fill="#BBD332" d="M182.645,72.927c17.989,42.455-85.871,79.872-114.654,78.593
		c9.594-9.595,14.711-7.676,23.026-14.711c8.955-7.676,10.874-12.793,19.189-26.864c5.683-9.617,14.072-22.387,23.026-29.422
		c9.594-7.036,23.987-22.066,34.221-27.823c5.117,5.117,1.439,7.675,11.192,15.669L182.645,72.927z"/>
	<g>
		<path fill-rule="evenodd" clip-rule="evenodd" fill="#232426" d="M141.491,81.766"/>
		<path fill-rule="evenodd" clip-rule="evenodd" fill="#232426" d="M139.103,90.875c-3.15,8.836-8.823,17.202-15.943,12.034
			C125.718,92.035,139.103,90.875,139.103,90.875z"/>
		<path fill-rule="evenodd" clip-rule="evenodd" fill="#232426" d="M164.546,68.095c1.771,5.015-8.409,3.141-8.574,7.042
			C151.247,74.25,159.225,63.569,164.546,68.095z"/>
		<path fill-rule="evenodd" clip-rule="evenodd" fill="#232426" d="M166.698,69.336c4.964,2.987-3.834,16.945-11.508,12.839
			C152.963,74.401,166.179,75.53,166.698,69.336z"/>
		<path fill-rule="evenodd" clip-rule="evenodd" fill="#232426" d="M144.778,101.64c-3.097,9.2-8.046,17.333-24.113,19.052
			c1.959-4.365,8.722-5.956,9.904-10.768c-10.577,4.388-13.485,18.57-23.08,16.011c-0.959-4.157,11.513-17.589,27.894-22.223
			L144.778,101.64z"/>
		<path fill-rule="evenodd" clip-rule="evenodd" fill="#232426" d="M151.703,109.865c4.291,0.677-3.176,12.354-17.75,11.273
			C133.954,121.138,147.146,109.146,151.703,109.865z"/>
		<path fill-rule="evenodd" clip-rule="evenodd" fill="#232426" d="M107.809,128.174c-0.671,10.228-11.483,19.024-15.569,16.047
			C88.155,141.243,101.176,135.424,107.809,128.174z"/>
		<path fill-rule="evenodd" clip-rule="evenodd" fill="#232426" d="M166.814,99.311c-2.509,9.253-17.51,12.953-17.692,6.186
			c1.458-6.151,4.26-10.263,12.655-18.418C160.338,97.393,164.396,96.401,166.814,99.311z"/>
		<path fill-rule="evenodd" clip-rule="evenodd" fill="#232426" d="M128.597,122.738c-5.757,7.355-14.711,16.63-19.349,13.751
			C106.358,128.056,120.287,124.836,128.597,122.738z"/>
	</g>
	<g>
		<path fill="#232426" d="M148.745,86.279c5.438-2.719,2.473-7.892,5.351-10.727c0,0-5.351-0.146-10.787,4.65
			c-3.746,3.305-8.033,4.32-6.396,8.635C138.991,91.077,148.833,86.479,148.745,86.279z"/>
		<path fill="#232426" d="M138.867,101.227c13.065-1.451,13.822-10.007,18.75-16.153C154.557,84.414,139.209,95.432,138.867,101.227
			z"/>
	</g>
	<g>
		<path d="M230.266,44.544c1.395-11.131-6.156-21.569-16.297-25.497c-11.329-4.387-22.999-3.8-33.348,2.756
			c-8.247,5.225-12.99,14.085-16.67,22.813c-1.753,4.156-2.895,8.823-5.227,12.691c-2.809,4.658-7.96,8.123-12.266,11.255
			c-8.553,6.223-18.395,11.84-24.693,20.558c-6.752,9.346-11.702,19.888-18.434,29.282c-7.792,10.873-16.9,18.286-27.903,25.595
			c-8.74,5.806-17.895,12.113-22.896,21.632c-0.176,0.376-0.352,0.752-0.528,1.128c-0.991,2.117,1.568,2.526,3.154,2.351
			c19.364-2.144,38.615-5.546,57.157-11.632c17.777-5.835,34.029-14.876,49.813-24.803c12.638-7.948,26.564-18.106,31.105-33.007
			c3.497-11.475,1.647-26.638-10.979-31.315c-1.824-0.676-3.947-0.3-5.586,0.716c-0.941,0.583-2.502,2.477-0.669,3.156
			c11.647,4.315,12.167,18.086,9.346,28.4c-3.94,14.404-18.93,23.927-30.859,31.311c-14.802,9.163-29.943,17.261-46.583,22.558
			c-16.777,5.339-34.236,8.208-51.699,10.141c1.051,0.784,2.103,1.567,3.154,2.351c4.321-9.228,12.755-15.047,20.987-20.546
			c8.126-5.429,16.039-10.671,22.527-18.077c7.774-8.873,13.986-18.71,19.927-28.863c2.191-3.745,4.394-7.485,6.937-11.006
			c3.16-4.373,8.009-7.73,12.319-10.865c7.502-5.457,16.142-10.382,22.137-17.602c5.429-6.538,7.005-15.92,10.956-23.385
			c4.964-9.381,13.485-17.34,24.856-15.828c12.139,1.615,24.042,11.372,22.373,24.689C221.973,48.725,229.922,47.286,230.266,44.544
			L230.266,44.544z"/>
	</g>
	
		<line fill-rule="evenodd" clip-rule="evenodd" stroke="#000000" stroke-width="0.9115" stroke-miterlimit="10" x1="218.534" y1="54.693" x2="216.392" y2="58.906"/>
	<path fill-rule="evenodd" clip-rule="evenodd" fill="#FFFFFF" d="M217.654,56.519l-0.262-0.54c0.106-0.278,0.198-0.55,0.262-0.806
		l-2.278-4.102c-2.757,2.067-9.677-0.425-15.951-2.735c-12.052-4.437-18.122,0.976-16.343,7.747
		c-0.092,0.433-0.152,0.874-0.046,1.308c0.19,0.779,0.992,1.39,1.394,2.193c0.427,0.855,0.46,1.928,1.008,2.65
		c0.571,0.753,1.601,1.071,2.277,1.689c0.691,0.633,1.099,1.626,1.873,2.127c0.784,0.508,1.863,0.477,2.703,0.862
		c0.851,0.39,1.528,1.227,2.406,1.501c0.9,0.281,1.938-0.021,2.835,0.15c0.938,0.179,1.791,0.84,2.687,0.914
		c0.971,0.079,1.92-0.444,2.797-0.473c1.013-0.034,2.006,0.405,2.826,0.252c1.121-0.209,1.835-1.018,2.431-1.389
		c0.39-0.223,1.119-0.06,1.562-0.397c0.378-0.287,0.426-1.03,0.826-1.383c0.365-0.323,1.107-0.271,1.48-0.638
		c0.354-0.348,0.317-1.091,0.667-1.468c0.341-0.369,1.086-0.388,1.415-0.775c0.33-0.388,0.228-1.126,0.535-1.524
		c0.315-0.408,1.055-0.497,1.336-0.906c0.297-0.431,0.115-1.152,0.363-1.572c0.271-0.459,0.992-0.656,1.19-1.088
		C217.877,57.618,217.543,56.961,217.654,56.519z"/>
	<g>
		<path d="M209.936,78.205c-2.624,11.379-8.035,22.823-12.691,33.621c-5.989,13.89-16.56,24.589-29.631,31.988
			c-3.879,2.196-6.095,4.957-7.286,9.325c-0.344,1.262-0.349,2.603-0.29,3.896c0.155,3.363,0.794,1.512,5.004,0.733
			c-6.008,1.112-10.173-2.619-11.823-8.159c-0.021-0.072-5.351,1.387-5.911,1.584c-10.091,3.551-19.43,9.698-29.075,14.285
			c-2.743,1.304-5.521,2.528-8.329,3.687c-1.828,0.754-3.686,1.434-5.557,2.074c-1.607,0.497-1.441,0.478,0.498-0.057
			c-0.897,0.203-1.802,0.363-2.714,0.479c-7.142,1.029-11.197-4.432-13.354-10.458c-0.072-0.2-5.87,1.697-5.911,1.584
			c2.57,7.181,7.293,11.807,15.314,10.139c5.195-1.08,10.359-2.58,15.328-4.435c13.742-5.133,25.927-14.031,39.711-18.881
			c-1.97,0.528-3.941,1.056-5.911,1.584c2.958,9.934,11.009,8.743,18.903,6.322c0.034-0.012,0.069-0.024,0.104-0.036
			c-1.601-5.031,1.149-10.125,4.41-13.764c0.798-0.891,3.078-1.642,4.145-2.246c1.727-0.977,3.388-2.064,5.034-3.169
			c3.031-2.034,5.842-4.375,8.51-6.859c8.532-7.943,13.885-18.656,18.497-29.251c6.756-15.522,10.168-35.455,11.936-38.859
			c1.883-3.625,4.14-6.799,3.439-11.299c0.026,0.17-5.952,1.323-5.911,1.584l0,0c0.713,4.576-1.812,8.168-3.76,11.917"/>
	</g>
	<linearGradient id="SVGID_3_" gradientUnits="userSpaceOnUse" x1="139.1753" y1="170.3613" x2="184.5205" y2="170.3613">
		<stop  offset="0" style="stop-color:#F9BCC6"/>
		<stop  offset="0.0181" style="stop-color:#F9BCC6"/>
		<stop  offset="0.2025" style="stop-color:#F9BCC6"/>
		<stop  offset="0.214" style="stop-color:#F9BCC6"/>
		<stop  offset="0.3313" style="stop-color:#F9BCC6"/>
		<stop  offset="0.4378" style="stop-color:#FBD2D7"/>
		<stop  offset="0.5579" style="stop-color:#FDE5E7"/>
		<stop  offset="0.6859" style="stop-color:#FEF2F2"/>
		<stop  offset="0.8258" style="stop-color:#FFFBFB"/>
		<stop  offset="1" style="stop-color:#FFFFFF"/>
	</linearGradient>
	
		<path fill-rule="evenodd" clip-rule="evenodd" fill="url(#SVGID_3_)" stroke="#000000" stroke-width="2.9285" stroke-linecap="round" stroke-linejoin="round" stroke-miterlimit="10" d="
		M162.878,161.675c6.984-2.413,14.829-1.766,18.58,3.948c1.729,2.635,5.266,13.397,1.136,15.447
		c-2.667-7.856-4.443-13.469-14.448-15.926c3.26,5.084,5.365,11.451,1.158,18.1c0.079-5.158-2.583-13.81-9.023-16.141
		c-7.342-2.658-16.678-1.939-18.592,5.635c-2.669-0.066-3.319-7.508-1.435-8.929c3.129-2.36,10.418-3.624,14.467-3.813
		c0.25-3.594,2.019-2.104,6.619-2.518L162.878,161.675z"/>
	<path fill-rule="evenodd" clip-rule="evenodd" fill="#8DC63F" d="M206.151,129.773c0,0,10.074-11.993,30.702-1.439
		C226.299,138.888,211.908,133.611,206.151,129.773z"/>
	<path fill-rule="evenodd" clip-rule="evenodd" fill="#8DC63F" d="M82.551,95.406c0,0,11.216-8.635,27.377,4.68
		C98.568,107.356,86.889,99.908,82.551,95.406z"/>
	<path fill-rule="evenodd" clip-rule="evenodd" fill="#8DC63F" stroke="#FFFFFF" stroke-width="1.5241" stroke-miterlimit="10" d="
		M103.055,31.214c0,0,16.83,0.262,16.888,23.035C104.282,52.702,102.198,38.134,103.055,31.214z"/>
	<path fill-rule="evenodd" clip-rule="evenodd" fill="#8DC63F" d="M191.181,140.244c0,0,14.32-6.343,28.208,12.204
		C205.271,157.288,194.664,146.221,191.181,140.244z"/>
	<circle fill-rule="evenodd" clip-rule="evenodd" fill="#39B54A" cx="222.941" cy="96.193" r="3.898"/>
	<g>
		<g>
			<path d="M112.148,217.306h-4.674l-0.146-0.229c-0.445-0.698-1.002-2.532-1.807-5.948c-0.733-3.099-2.021-4.233-4.919-4.334
				l-2.734,0v10.511h-4.437v-24.809l0.405-0.076c1.818-0.338,4.386-0.548,6.704-0.548c3.744,0,6.31,0.676,8.076,2.128
				c1.447,1.156,2.28,2.977,2.28,4.991c0,2.723-1.636,5.036-4.34,6.239c1.529,0.858,2.585,2.437,3.214,4.792
				c0.784,3.045,1.473,5.636,1.975,6.548L112.148,217.306z M97.868,203.427h3.028c3.355,0,5.522-1.614,5.522-4.111
				c0-3.309-3.068-4.003-5.642-4.003c-1.467,0-2.407,0.113-2.909,0.198V203.427z"/>
		</g>
		<g>
			<path d="M138.869,217.701h-0.04c-7.356,0-12.494-5.266-12.494-12.806c0-7.794,5.284-13.238,12.851-13.238
				c7.497,0,12.533,5.132,12.533,12.771C151.719,213.597,145.265,217.701,138.869,217.701z M139.027,195.205
				c-5.593,0-8.096,4.831-8.096,9.619c0,4.636,2.754,9.33,8.017,9.33c5.605,0,8.096-4.812,8.096-9.582
				C147.044,200.06,144.536,195.205,139.027,195.205z"/>
		</g>
		<g>
			<path d="M174.232,217.701c-2.512,0-5.484-0.696-7.067-1.655l-0.343-0.208l1.239-3.576l0.521,0.303
				c1.655,0.964,3.801,1.517,5.888,1.517c3.138,0,5.087-1.396,5.087-3.644c0-1.682-0.785-2.99-4.692-4.317
				c-4.968-1.643-7.385-4.058-7.385-7.381c0-4.17,3.754-7.083,9.128-7.083c3.389,0,5.391,0.871,6.094,1.246l0.383,0.204
				l-1.304,3.506l-0.506-0.285c-0.454-0.255-2.14-1.088-4.786-1.088c-3.131,0-4.533,1.577-4.533,3.14
				c0,1.863,1.209,2.887,4.975,4.211c5.045,1.811,7.103,4.011,7.103,7.595C184.034,213.653,181.467,217.701,174.232,217.701z"/>
		</g>
		<g>
			<path d="M205.299,217.306h-4.477v-25.253h4.477V217.306z"/>
		</g>
		<g>
			<path d="M238.898,214.182v2.628h-15.047v-24.261h14.453v2.627h-10.968v7.667h10.335v2.591h-10.335v8.747"/>
			<path d="M239.394,217.306h-16.039v-25.253H238.8v3.62h-10.968v6.675h10.335v3.583h-10.335v7.755h11.562V217.306z"/>
		</g>
	</g>
	<g>
		<g>
			<path fill-rule="evenodd" clip-rule="evenodd" fill="#232426" d="M141.491,81.766"/>
		</g>
		<g>
			<path fill-rule="evenodd" clip-rule="evenodd" fill="#232426" d="M139.103,90.875c-3.15,8.836-8.823,17.202-15.943,12.034
				C125.718,92.035,139.103,90.875,139.103,90.875z"/>
		</g>
		<g>
			<path fill-rule="evenodd" clip-rule="evenodd" fill="#232426" d="M164.546,68.095c1.771,5.015-8.409,3.141-8.574,7.042
				C151.247,74.25,159.225,63.569,164.546,68.095z"/>
		</g>
		<g>
			<path fill-rule="evenodd" clip-rule="evenodd" fill="#232426" d="M166.698,69.336c4.964,2.987-3.834,16.945-11.508,12.839
				C152.963,74.401,166.179,75.53,166.698,69.336z"/>
		</g>
		<g>
			<path fill-rule="evenodd" clip-rule="evenodd" fill="#232426" d="M144.778,101.64c-3.097,9.2-8.046,17.333-24.113,19.052
				c1.959-4.365,8.722-5.956,9.904-10.768c-10.577,4.388-13.485,18.57-23.08,16.011c-0.959-4.157,11.513-17.589,27.894-22.223
				L144.778,101.64z"/>
		</g>
		<g>
			<path fill-rule="evenodd" clip-rule="evenodd" fill="#232426" d="M151.703,109.865c4.291,0.677-3.176,12.354-17.75,11.273
				C133.954,121.138,147.146,109.146,151.703,109.865z"/>
		</g>
		<g>
			<path fill-rule="evenodd" clip-rule="evenodd" fill="#232426" d="M107.809,128.174c-0.671,10.228-11.483,19.024-15.569,16.047
				C88.155,141.243,101.176,135.424,107.809,128.174z"/>
		</g>
		<g>
			<path fill-rule="evenodd" clip-rule="evenodd" fill="#232426" d="M172.833,82.25c-0.394,4.269-0.033,11.827-5.978,12.892
				c-4.57-2.5,0.437-10.46,1.228-14.142C169.741,81.542,170.257,82.894,172.833,82.25z"/>
		</g>
		<g>
			<path fill-rule="evenodd" clip-rule="evenodd" fill="#232426" d="M166.814,99.311c-2.509,9.253-17.51,12.953-17.692,6.186
				c1.458-6.151,4.26-10.263,12.655-18.418C160.338,97.393,164.396,96.401,166.814,99.311z"/>
		</g>
		<g>
			<path fill-rule="evenodd" clip-rule="evenodd" fill="#232426" d="M128.597,122.738c-5.757,7.355-14.711,16.63-19.349,13.751
				C106.358,128.056,120.287,124.836,128.597,122.738z"/>
		</g>
	</g>
	<g>
		<linearGradient id="SVGID_4_" gradientUnits="userSpaceOnUse" x1="216.916" y1="47.2866" x2="229.2915" y2="47.2866">
			<stop  offset="0.1411" style="stop-color:#A7A9AC"/>
			<stop  offset="0.2784" style="stop-color:#C8CACC"/>
			<stop  offset="0.4166" style="stop-color:#E4E5E6"/>
			<stop  offset="0.5312" style="stop-color:#F6F6F6"/>
			<stop  offset="0.6074" style="stop-color:#FFFFFF"/>
			<stop  offset="1" style="stop-color:#FFFFFF"/>
		</linearGradient>
		<path fill-rule="evenodd" clip-rule="evenodd" fill="url(#SVGID_4_)" d="M216.916,49.875c0,0,2.417-9.375,12.375-6.042
			l-2.333,7.625L216.916,49.875z"/>
	</g>
	<g>
		<linearGradient id="SVGID_5_" gradientUnits="userSpaceOnUse" x1="217.4746" y1="55.458" x2="230.7866" y2="55.458">
			<stop  offset="0.1411" style="stop-color:#A7A9AC"/>
			<stop  offset="0.1766" style="stop-color:#B5B7BA"/>
			<stop  offset="0.2496" style="stop-color:#CFD0D2"/>
			<stop  offset="0.3264" style="stop-color:#E2E3E5"/>
			<stop  offset="0.4077" style="stop-color:#F1F1F2"/>
			<stop  offset="0.4966" style="stop-color:#FAFAFA"/>
			<stop  offset="0.6074" style="stop-color:#FFFFFF"/>
			<stop  offset="1" style="stop-color:#FFFFFF"/>
		</linearGradient>
		<path fill-rule="evenodd" clip-rule="evenodd" fill="url(#SVGID_5_)" d="M228.958,43.5c0,0,7.375,12.167-7.501,23.917
			c0.333-3.333,2.042-7.292,0.25-10.292c-3.667-2.667-4.499-6.292-4.166-8.292"/>
		<g>
			<path d="M227.589,43.866c4.958,8.454-0.558,17.942-7.196,23.451c0.807-0.04,1.613-0.081,2.42-0.121
				c0.525-3.605,1.75-6.931,0.263-10.439c-0.471-1.11-2.694-2.732-3.356-3.896c-0.713-1.254-0.951-2.832-0.823-4.248
				c0.076-0.844-2.647-0.278-2.713,0.438c-0.181,1.994,0.235,4.026,1.455,5.67c1.374,1.852,3.116,3.151,3.491,5.538
				c0.353,2.247-0.702,5.125-1.03,7.375c-0.128,0.885,2.109,0.138,2.42-0.121c6.868-5.7,13.02-15.493,7.806-24.382
				C229.882,42.374,227.299,43.371,227.589,43.866L227.589,43.866z"/>
		</g>
	</g>
	<g>
		<g>
			<path d="M218.833,49.833c0.318-1.191,0.217-2.466,0.938-3.455c2.231-3.056,5.697-3.123,9.055-2.081
				c0.633,0.197,2.41-0.741,1.263-1.097c-5.821-1.807-12.672-0.534-13.922,6.299c-0.136,0.743,1.758,0.843,1.941,0.159
				L218.833,49.833z"/>
		</g>
	</g>
</g>
</svg>
